<svg xmlns="http://www.w3.org/2000/svg" viewBox="0 0 635.28 204.9"><defs><style>.cls-1{fill:#008a9a;}.cls-2{fill:#fff;}</style></defs><title>Ativo 1</title><g id="Camada_2" data-name="Camada 2"><g id="svg2351"><g id="layer1"><g id="g2364"><path id="path43" class="cls-1" d="M.13,204.69H635.22V0H.13Z"/><path id="path45" class="cls-2" d="M459.37,204.88c-3-1.27-11.3-5.53-12.38-14l-15.44,14-36,0c-3.56-1-10-4.18-12.07-14.45l-14.86,14.43-31.39,0-13.4-43.36-16.58,43.32H277.24l5.65-14.55c-12.07,10-15.82,13.5-16.9,14.59l-25.53,0c-9.6-4.43-10.3-14.67-10.3-14.67-12.45,10.16-16.32,13.56-17.47,14.67l-22.3,0c-8.19-3.83-10.8-14.2-10.8-14.2-12.45,9.16-19.69,14.2-19.69,14.2H119.43l24-61.8H122l-23.19,61.8H69l27.38-76.24H76.81L47.65,204.86H17.79l34.3-90.69H0V88H91.29l-5.15,15.35h49.43L130,119.13h49.87L157,181.85h23.31l18.17-45.12s7-17.6,23.32-17.6h63L262.37,182.3h23.32L321.58,88H350l-21.92,62.27,32.65-31.14h34.06l-41,40.16,6,23.46,25.22-.23,25.16-63.84h28.4L415.73,182.3h32.65l16.27-42.87H445.52l7.5-20.75h18.17L483.77,88h29.35l-11.18,29.78h17.28l-7,21.2H493.55l-15.37,42.87h32.65l15.38-41.06s6.54-21.19,25.66-21.66h61.5l-22.81,62.72h44.72v23H575.63s-14-1.8-16.33-14.43l-14.48,14.43H524.36s-13.08-1.8-14.93-14.43l-14.92,14.45Zm100.19-22.13,15.82-39.69H555.3l-15.82,39.69Zm-328.13,0,15.82-39.69h-20l-15.88,39.69h20.07"/><path id="path47" class="cls-2" d="M412.43,111.3l8.38-23.46h28.46l-8.38,23.46H412.43"/><path id="path49" class="cls-2" d="M602.12,75.24h-4.57V70.92h5c1,0,2.61.16,2.61,2.13S603.58,75.24,602.12,75.24ZM607,80.61l-.12-2.3a2.19,2.19,0,0,0-1.72-2.39,3.15,3.15,0,0,0,2-3.06c0-2.68-2.41-3.42-4.83-3.42h-6.73V82.16h2V76.71h4.76c2.42,0,2.67,1.23,2.67,2.28a14.76,14.76,0,0,0,.32,3.17h2.48v-.28a1.12,1.12,0,0,1-.77-1.27"/><path id="path51" class="cls-2" d="M601.23,86.49a10.72,10.72,0,0,1,0-21.43,10.49,10.49,0,0,1,7.56,3.13A10.62,10.62,0,0,1,612,75.77,10.74,10.74,0,0,1,601.23,86.49Zm8.45-19.12a11.91,11.91,0,0,0-20.33,8.4,11.93,11.93,0,0,0,11.88,11.91,12,12,0,0,0,8.45-3.49,12,12,0,0,0,0-16.82"/></g></g></g></g></svg>