<svg xmlns="http://www.w3.org/2000/svg" viewBox="0 0 885.83 272.24"><defs><style>.cls-1{fill:#febd18;}</style></defs><title>Ativo 1</title><g id="Camada_2" data-name="Camada 2"><g id="svg2"><g id="layer1"><g id="g4899"><path id="path4490" class="cls-1" d="M885.82,272.24V0H0V272.24H885.82"/><path id="path4494" d="M38.13,38.14h809.6V53.49H38.13Z"/><path id="path4496" d="M38.13,218.58H847.7v15.34H38.13Z"/><path id="path4500" d="M724.91,61.18H847.74v42.25h-33.3V210.56H758.08V103.43H724.91V61.18"/><path id="path4504" d="M640.44,61.18V210.56H742.79V166H696.72V61.18H640.44"/><path id="path4508" d="M525.18,61.16H587l47.4,149.4H579.34l-5.64-22.74H539.17L534,210.56h-57.5Zm21.66,93.43H566l-9.37-43.5-9.82,43.5"/><path id="path4512" d="M495.5,61.16h-55L425.14,134.1,408.49,61.16H359.86L344.18,134.1l-15-72.94H274.22l41.07,149.4h51l17.15-72.89,17.6,72.89h52.24L495.5,61.15"/><path id="path4516" d="M193.23,93.15h81.94V123.9H235.51v12.75h34.54V167.4H235.51v12.75h39.66v30.41H193.23V93.15"/><path id="path4520" d="M38.17,210.56V61.16h70c41.33,0,74.19,22.51,74.19,75,0,51.09-31.81,74.39-74.46,74.39Zm57.77-44.74c17.73,0,29.44-7.44,29.44-30.15,0-24.92-11.61-31.57-29.33-31.57H91.53v61.72h4.41"/><path id="path4524" d="M822.06,198.12a12.4,12.4,0,1,1,12.43,12.27A12.23,12.23,0,0,1,822.06,198.12Zm12.43,10.23a10.2,10.2,0,1,0-10-10.23A9.88,9.88,0,0,0,834.49,208.35Zm-2.38-8.64h2l2.67,4.51h3.05l-3.14-4.69a3.77,3.77,0,0,0,3.56-4.14c0-2.15-1.69-3.75-5.09-3.75h-5.4v12.58h2.35Zm0-2.11v-4h2.72c1.52,0,3.24.1,3.24,2,0,2.11-1.39,2.08-3.24,2.08h-2.72"/></g></g></g></g></svg>