<svg xmlns="http://www.w3.org/2000/svg" viewBox="0 0 469.99 132.49">
    <defs>
        <style>.cls-1{fill:#fff;}</style>
    </defs>
    <title>Ativo 47</title>
    <g id="Camada_2" data-name="Camada 2">
        <g id="logo-vonder">
            <g id="Cop">
                <path id="circle" d="M470,123a8.88,8.88,0,0,1-1.16,4.48,8.71,8.71,0,0,1-3.19,3.27,8.47,8.47,0,0,1-4.41,1.22,8.56,8.56,0,0,1-4.39-1.19A9.16,9.16,0,0,1,455,116.64a8.62,8.62,0,0,1,12.43,0A8.82,8.82,0,0,1,470,123"/>
                <path id="fundo_branco" class="cls-1" d="M468.06,122.82a7,7,0,0,0-3.44-6,6.57,6.57,0,0,0-6.79,0,7,7,0,0,0-2.47,2.54,7,7,0,0,0,0,6.92,7,7,0,0,0,2.52,2.53,6.43,6.43,0,0,0,3.37.93,6.62,6.62,0,0,0,3.41-.93,6.76,6.76,0,0,0,2.48-2.5,6.66,6.66,0,0,0,.94-3.46"/>
                <path id="copy" d="M465,120.78a2.54,2.54,0,0,1-2.47,2.78l2.18,3.34a1.07,1.07,0,0,1,.19.58c0,.22-.29.36-.89.41a1.13,1.13,0,0,1-.94-.55l-2.33-3.68H459.2v3.49c0,.47-.27.72-.8.74s-.75-.27-.75-.74v-8.8q0-.48.51-.48h3.22c1.66,0,2.75.4,3.25,1.19a3.2,3.2,0,0,1,.4,1.72"/>
                <path id="fundo_branco-2" data-name="fundo_branco" class="cls-1" d="M463.46,120.68c0-.89-.76-1.34-2.28-1.34h-2v2.84h1.87a3,3,0,0,0,2.07-.51,1.39,1.39,0,0,0,.32-1"/>
            </g>
            <g id="R">
                <path id="r-2" data-name="r" d="M440,50.05q9-9.7,16.84-9.71a13.15,13.15,0,0,1,9.25,3.57,11.66,11.66,0,0,1,3.88,8.93c0,3.77-1.05,6.45-3.15,8.11a33,33,0,0,1-9.67,4.6c-6.08,2.11-10.51,4.29-13.23,6.53S440,77.72,440,82.65v35.4a15.83,15.83,0,0,1-3.34,10.3,11.28,11.28,0,0,1-9.26,4.14,11.07,11.07,0,0,1-9.07-4.18,16,16,0,0,1-3.36-10.26V55.68c0-4.66,1-8.14,3-10.41a11.42,11.42,0,0,1,9-4.38q8.75,0,13,9.16"/>
            </g>
            <g id="E">
                <path id="e-2" data-name="e" d="M354.71,93.23c1.74,5.18,4.22,8.91,7.44,11.24a18.71,18.71,0,0,0,11.74,4.06A30.15,30.15,0,0,0,388,105l7.13-3.69a12.89,12.89,0,0,1,4.78-1.25,10.28,10.28,0,0,1,5.17,1.47,10.93,10.93,0,0,1,4,4,9.79,9.79,0,0,1,1.51,5.14q0,7.23-10,13.16-12.23,7.2-28,7.2A46.58,46.58,0,0,1,353,126.8a42.78,42.78,0,0,1-15.75-12.3q-9.31-11.69-9.31-30.22a47.58,47.58,0,0,1,5.67-22.89,43.55,43.55,0,0,1,15.53-16.74,40.09,40.09,0,0,1,21.72-6.19,39.14,39.14,0,0,1,20.86,5.84,41.13,41.13,0,0,1,14.87,15.76,44.3,44.3,0,0,1,5.39,21.43c0,4.08-.83,7.07-2.46,8.93s-4.4,2.81-8.24,2.81Z"/>
                <path id="fundo_branco-3" data-name="fundo_branco" class="cls-1" d="M387.49,75.66q-4-16.09-17-16.11-11.49,0-16.61,16.11Z"/>
            </g>
            <g id="D">
                <path id="d-2" data-name="d" d="M299.1,46.53V14.3a15.55,15.55,0,0,1,3.36-10.2A11.41,11.41,0,0,1,311.77,0a11.2,11.2,0,0,1,9.16,4.1,15.63,15.63,0,0,1,3.34,10.2V116.17a17.35,17.35,0,0,1-3.19,10.58,10.71,10.71,0,0,1-9.1,4.3,11.37,11.37,0,0,1-7.81-2.55,18.46,18.46,0,0,1-4.69-7.77A24.79,24.79,0,0,1,290,129a29.45,29.45,0,0,1-12.6,2.53,30.35,30.35,0,0,1-15.78-4.43,40.24,40.24,0,0,1-12.5-11.87q-9.4-14.15-9.39-32.78A46.1,46.1,0,0,1,244,63.6a46.05,46.05,0,0,1,11.15-15.79,35.07,35.07,0,0,1,24.27-9.6q9.85,0,19.69,8.32"/>
                <path id="fundo_branco-4" data-name="fundo_branco" class="cls-1" d="M264.88,83.7a26.58,26.58,0,0,0,4.72,15.54A14.75,14.75,0,0,0,282.34,106a13.56,13.56,0,0,0,9.16-3.32,20.54,20.54,0,0,0,5.8-8.54,30,30,0,0,0,2-10.63,29.48,29.48,0,0,0-2-10.52,20.5,20.5,0,0,0-5.8-8.49,13.56,13.56,0,0,0-9.16-3.32,14.47,14.47,0,0,0-9.48,3.25,19.64,19.64,0,0,0-6,8.41,29.37,29.37,0,0,0-2,10.83"/>
            </g>
            <g id="N">
                <path id="n-2" data-name="n" d="M183.21,47.75a35.64,35.64,0,0,1,10.47-7.29A31.35,31.35,0,0,1,206,38.24q13.2,0,21.94,7.77A24.12,24.12,0,0,1,235,56.58a46.93,46.93,0,0,1,1.89,14.19v45a15.78,15.78,0,0,1-3.34,10.28,11.28,11.28,0,0,1-9.24,4.13,11,11,0,0,1-9-4.2A15.91,15.91,0,0,1,212,115.77V76.7A17.84,17.84,0,0,0,208.17,65c-2.51-3.1-6-4.66-10.54-4.66a12.26,12.26,0,0,0-7,2.15,14.91,14.91,0,0,0-4.93,5.65,16.24,16.24,0,0,0-1.78,7.49v40.1a15.79,15.79,0,0,1-3.33,10.3,11.29,11.29,0,0,1-9.24,4.13,11,11,0,0,1-9.05-4.18,15.88,15.88,0,0,1-3.36-10.23V53.9a17.52,17.52,0,0,1,3.12-10.5A11,11,0,0,1,171,38.78q8.7,0,12.24,9"/>
            </g>
            <g id="o">
                <path id="o-2" data-name="o" d="M72.34,85.1a56.09,56.09,0,0,1,2.85-17.86A42.19,42.19,0,0,1,97.88,41.79a39.41,39.41,0,0,1,33.77,0,41.46,41.46,0,0,1,14.14,10.48,42.08,42.08,0,0,1,8.45,14.93A57.44,57.44,0,0,1,157,85.1a56.22,56.22,0,0,1-2.76,17.65,43,43,0,0,1-8.45,15,41,41,0,0,1-14,10.48A39.71,39.71,0,0,1,115,132a40.69,40.69,0,0,1-17.07-3.79,41.73,41.73,0,0,1-14.18-10.5Q72.35,105.23,72.34,85.1"/>
                <path id="fundo_branco-5" data-name="fundo_branco" class="cls-1" d="M97.34,85.08a29.73,29.73,0,0,0,2,10.54,20.59,20.59,0,0,0,5.8,8.58,13.35,13.35,0,0,0,9.12,3.37,14.65,14.65,0,0,0,9.56-3.32A20.86,20.86,0,0,0,130,95.71a27.38,27.38,0,0,0,2.16-10.63A28.36,28.36,0,0,0,130,74.35a20.52,20.52,0,0,0-6.2-8.6,14.74,14.74,0,0,0-9.59-3.32q-7.92,0-12.39,7a28.35,28.35,0,0,0-4.49,15.61"/>
            </g>
            <g id="V">
                <path id="v-2" data-name="v" d="M38.79,89.67,52.26,48.11a17.72,17.72,0,0,1,4.51-7.32,9.6,9.6,0,0,1,6.87-3,17.34,17.34,0,0,1,10,3,9.33,9.33,0,0,1,4.32,8.14A34.36,34.36,0,0,1,75.57,60.1L54.13,115q-2.62,7.09-5.87,10.69t-9.47,3.59c-6.63,0-11.46-4.12-14.44-12.34L1.21,57.09A24.68,24.68,0,0,1,0,48.84a9.3,9.3,0,0,1,4.32-8.16,17.32,17.32,0,0,1,10-2.93,9,9,0,0,1,6.6,3,18.31,18.31,0,0,1,4.29,7.17Z"/>
            </g>
        </g>
    </g>
=======
<svg xmlns="http://www.w3.org/2000/svg" viewBox="0 0 469.99 132.49">
    <defs>
        <style>.cls-1{fill:#fff;}</style>
    </defs>
    <title>Ativo 47</title>
    <g id="Camada_2" data-name="Camada 2">
        <g id="logo-vonder">
            <g id="Cop">
                <path id="circle" d="M470,123a8.88,8.88,0,0,1-1.16,4.48,8.71,8.71,0,0,1-3.19,3.27,8.47,8.47,0,0,1-4.41,1.22,8.56,8.56,0,0,1-4.39-1.19A9.16,9.16,0,0,1,455,116.64a8.62,8.62,0,0,1,12.43,0A8.82,8.82,0,0,1,470,123"/>
                <path id="fundo_branco" class="cls-1" d="M468.06,122.82a7,7,0,0,0-3.44-6,6.57,6.57,0,0,0-6.79,0,7,7,0,0,0-2.47,2.54,7,7,0,0,0,0,6.92,7,7,0,0,0,2.52,2.53,6.43,6.43,0,0,0,3.37.93,6.62,6.62,0,0,0,3.41-.93,6.76,6.76,0,0,0,2.48-2.5,6.66,6.66,0,0,0,.94-3.46"/>
                <path id="copy" d="M465,120.78a2.54,2.54,0,0,1-2.47,2.78l2.18,3.34a1.07,1.07,0,0,1,.19.58c0,.22-.29.36-.89.41a1.13,1.13,0,0,1-.94-.55l-2.33-3.68H459.2v3.49c0,.47-.27.72-.8.74s-.75-.27-.75-.74v-8.8q0-.48.51-.48h3.22c1.66,0,2.75.4,3.25,1.19a3.2,3.2,0,0,1,.4,1.72"/>
                <path id="fundo_branco-2" data-name="fundo_branco" class="cls-1" d="M463.46,120.68c0-.89-.76-1.34-2.28-1.34h-2v2.84h1.87a3,3,0,0,0,2.07-.51,1.39,1.39,0,0,0,.32-1"/>
            </g>
            <g id="R">
                <path id="r-2" data-name="r" d="M440,50.05q9-9.7,16.84-9.71a13.15,13.15,0,0,1,9.25,3.57,11.66,11.66,0,0,1,3.88,8.93c0,3.77-1.05,6.45-3.15,8.11a33,33,0,0,1-9.67,4.6c-6.08,2.11-10.51,4.29-13.23,6.53S440,77.72,440,82.65v35.4a15.83,15.83,0,0,1-3.34,10.3,11.28,11.28,0,0,1-9.26,4.14,11.07,11.07,0,0,1-9.07-4.18,16,16,0,0,1-3.36-10.26V55.68c0-4.66,1-8.14,3-10.41a11.42,11.42,0,0,1,9-4.38q8.75,0,13,9.16"/>
            </g>
            <g id="E">
                <path id="e-2" data-name="e" d="M354.71,93.23c1.74,5.18,4.22,8.91,7.44,11.24a18.71,18.71,0,0,0,11.74,4.06A30.15,30.15,0,0,0,388,105l7.13-3.69a12.89,12.89,0,0,1,4.78-1.25,10.28,10.28,0,0,1,5.17,1.47,10.93,10.93,0,0,1,4,4,9.79,9.79,0,0,1,1.51,5.14q0,7.23-10,13.16-12.23,7.2-28,7.2A46.58,46.58,0,0,1,353,126.8a42.78,42.78,0,0,1-15.75-12.3q-9.31-11.69-9.31-30.22a47.58,47.58,0,0,1,5.67-22.89,43.55,43.55,0,0,1,15.53-16.74,40.09,40.09,0,0,1,21.72-6.19,39.14,39.14,0,0,1,20.86,5.84,41.13,41.13,0,0,1,14.87,15.76,44.3,44.3,0,0,1,5.39,21.43c0,4.08-.83,7.07-2.46,8.93s-4.4,2.81-8.24,2.81Z"/>
                <path id="fundo_branco-3" data-name="fundo_branco" class="cls-1" d="M387.49,75.66q-4-16.09-17-16.11-11.49,0-16.61,16.11Z"/>
            </g>
            <g id="D">
                <path id="d-2" data-name="d" d="M299.1,46.53V14.3a15.55,15.55,0,0,1,3.36-10.2A11.41,11.41,0,0,1,311.77,0a11.2,11.2,0,0,1,9.16,4.1,15.63,15.63,0,0,1,3.34,10.2V116.17a17.35,17.35,0,0,1-3.19,10.58,10.71,10.71,0,0,1-9.1,4.3,11.37,11.37,0,0,1-7.81-2.55,18.46,18.46,0,0,1-4.69-7.77A24.79,24.79,0,0,1,290,129a29.45,29.45,0,0,1-12.6,2.53,30.35,30.35,0,0,1-15.78-4.43,40.24,40.24,0,0,1-12.5-11.87q-9.4-14.15-9.39-32.78A46.1,46.1,0,0,1,244,63.6a46.05,46.05,0,0,1,11.15-15.79,35.07,35.07,0,0,1,24.27-9.6q9.85,0,19.69,8.32"/>
                <path id="fundo_branco-4" data-name="fundo_branco" class="cls-1" d="M264.88,83.7a26.58,26.58,0,0,0,4.72,15.54A14.75,14.75,0,0,0,282.34,106a13.56,13.56,0,0,0,9.16-3.32,20.54,20.54,0,0,0,5.8-8.54,30,30,0,0,0,2-10.63,29.48,29.48,0,0,0-2-10.52,20.5,20.5,0,0,0-5.8-8.49,13.56,13.56,0,0,0-9.16-3.32,14.47,14.47,0,0,0-9.48,3.25,19.64,19.64,0,0,0-6,8.41,29.37,29.37,0,0,0-2,10.83"/>
            </g>
            <g id="N">
                <path id="n-2" data-name="n" d="M183.21,47.75a35.64,35.64,0,0,1,10.47-7.29A31.35,31.35,0,0,1,206,38.24q13.2,0,21.94,7.77A24.12,24.12,0,0,1,235,56.58a46.93,46.93,0,0,1,1.89,14.19v45a15.78,15.78,0,0,1-3.34,10.28,11.28,11.28,0,0,1-9.24,4.13,11,11,0,0,1-9-4.2A15.91,15.91,0,0,1,212,115.77V76.7A17.84,17.84,0,0,0,208.17,65c-2.51-3.1-6-4.66-10.54-4.66a12.26,12.26,0,0,0-7,2.15,14.91,14.91,0,0,0-4.93,5.65,16.24,16.24,0,0,0-1.78,7.49v40.1a15.79,15.79,0,0,1-3.33,10.3,11.29,11.29,0,0,1-9.24,4.13,11,11,0,0,1-9.05-4.18,15.88,15.88,0,0,1-3.36-10.23V53.9a17.52,17.52,0,0,1,3.12-10.5A11,11,0,0,1,171,38.78q8.7,0,12.24,9"/>
            </g>
            <g id="o">
                <path id="o-2" data-name="o" d="M72.34,85.1a56.09,56.09,0,0,1,2.85-17.86A42.19,42.19,0,0,1,97.88,41.79a39.41,39.41,0,0,1,33.77,0,41.46,41.46,0,0,1,14.14,10.48,42.08,42.08,0,0,1,8.45,14.93A57.44,57.44,0,0,1,157,85.1a56.22,56.22,0,0,1-2.76,17.65,43,43,0,0,1-8.45,15,41,41,0,0,1-14,10.48A39.71,39.71,0,0,1,115,132a40.69,40.69,0,0,1-17.07-3.79,41.73,41.73,0,0,1-14.18-10.5Q72.35,105.23,72.34,85.1"/>
                <path id="fundo_branco-5" data-name="fundo_branco" class="cls-1" d="M97.34,85.08a29.73,29.73,0,0,0,2,10.54,20.59,20.59,0,0,0,5.8,8.58,13.35,13.35,0,0,0,9.12,3.37,14.65,14.65,0,0,0,9.56-3.32A20.86,20.86,0,0,0,130,95.71a27.38,27.38,0,0,0,2.16-10.63A28.36,28.36,0,0,0,130,74.35a20.52,20.52,0,0,0-6.2-8.6,14.74,14.74,0,0,0-9.59-3.32q-7.92,0-12.39,7a28.35,28.35,0,0,0-4.49,15.61"/>
            </g>
            <g id="V">
                <path id="v-2" data-name="v" d="M38.79,89.67,52.26,48.11a17.72,17.72,0,0,1,4.51-7.32,9.6,9.6,0,0,1,6.87-3,17.34,17.34,0,0,1,10,3,9.33,9.33,0,0,1,4.32,8.14A34.36,34.36,0,0,1,75.57,60.1L54.13,115q-2.62,7.09-5.87,10.69t-9.47,3.59c-6.63,0-11.46-4.12-14.44-12.34L1.21,57.09A24.68,24.68,0,0,1,0,48.84a9.3,9.3,0,0,1,4.32-8.16,17.32,17.32,0,0,1,10-2.93,9,9,0,0,1,6.6,3,18.31,18.31,0,0,1,4.29,7.17Z"/>
            </g>
        </g>
    </g>
>>>>>>> cf4e717cb2f8d90ec1323157f2f4753bcc9c728f
</svg>