<?xml version="1.0" encoding="utf-8"?>
<!-- Generator: Adobe Illustrator 26.4.1, SVG Export Plug-In . SVG Version: 6.00 Build 0)  -->
<svg version="1.0" id="Layer_1" xmlns="http://www.w3.org/2000/svg" xmlns:xlink="http://www.w3.org/1999/xlink" x="0px" y="0px"
	 viewBox="0 0 436.9 334.1" style="enable-background:new 0 0 436.9 334.1;" xml:space="preserve">
<style type="text/css">
	.st0{fill:#00AA13;}
</style>
<g>
	<g>
		<path d="M159,253c-21.5,0-37.7,17.4-37.7,40.3c0,23.3,16.7,40.2,39.6,40.2c12.3,0,22.5-4.4,30.3-13c0.4-0.4,0.6-0.9,0.5-1.5
			c0-0.6-0.3-1.1-0.7-1.5l-7.7-6.8c-0.8-0.7-2-0.7-2.8,0c-6.1,5.6-11.9,7.9-19.3,7.9c-11.2,0-21.2-8.7-21.8-19h54.1
			c1.1,0,2-0.8,2.1-1.9c0.1-0.9,0.1-2,0.1-3.1c0-11.5-3.2-21.8-9.1-29.2C180.1,257.3,170.5,253,159,253z M178.1,286.6h-38.9
			c0.1-10.7,8.5-18.7,19.6-18.7C170.7,267.9,177.9,277.6,178.1,286.6z"/>
		<path d="M242.4,286.6l-1.5-0.5c-8.4-2.7-15.6-5-15.6-10v-0.3c0-4.5,4.1-7.5,10.5-7.5c5.7,0,12.8,2.2,19.9,6.3
			c0.5,0.3,1.1,0.4,1.6,0.2c0.6-0.1,1-0.5,1.3-1l5.2-9.3c0.6-1,0.2-2.2-0.7-2.8c-8.1-5-17.9-7.8-26.8-7.8
			c-16.2,0-27.6,9.7-27.6,23.6v0.3c0,14.7,12.4,19.4,24.1,22.7l1.8,0.6c8.1,2.5,15.2,4.6,15.2,10v0.3c0,5-4.4,8-11.6,8
			c-7.5,0-15.8-2.9-23.4-8.3c-0.5-0.3-1.1-0.5-1.6-0.4c-0.6,0.1-1,0.4-1.3,0.9l-5.8,8.8c-0.6,0.9-0.4,2.2,0.5,2.9
			c9,6.6,20.5,10.4,31.3,10.4c17.7,0,28.7-9.3,28.7-24.4V309C266.4,295.8,254.9,290.4,242.4,286.6z"/>
		<path d="M339.5,310.1c-0.8-0.8-2.1-0.8-3,0c-5.8,5.6-11.7,8.2-18.4,8.2c-12.9,0-22.7-10.6-22.7-24.6c0-13.6,9.6-24.3,21.8-24.3
			c7.1,0,12.6,2.4,18.4,8.1c0.4,0.4,0.9,0.6,1.5,0.6l0,0c0.6,0,1.1-0.2,1.5-0.6l8.4-9c0.8-0.8,0.7-2.1,0-2.9
			c-7.9-8.2-17.4-12-29.6-12c-22.5,0-40,17.8-40,40.5c0,22.5,17.5,40,39.9,40c12.5,0,21.6-3.9,30.3-13.1c0.8-0.8,0.7-2.1-0.1-2.9
			L339.5,310.1z"/>
		<path d="M395.9,253c-23.1,0-41.2,17.8-41.2,40.5c0,22.5,18,40,40.9,40c23.2,0,41.3-17.7,41.3-40.3c0-10.9-4.1-20.9-11.6-28.4
			C417.7,257.2,407.3,253,395.9,253z M418.9,293.5c0,14.1-9.7,24.3-23,24.3c-13.2,0-23.2-10.6-23.2-24.6c0-14.1,9.6-24.3,22.8-24.3
			C408.9,268.9,418.9,279.5,418.9,293.5z"/>
		<path d="M112.7,255.1H99.1c-0.9,0-1.7,0.6-2,1.5L82,307.3l-22.9-49c-0.3-0.6-1-1.1-1.7-1.1l0,0c-0.7,0-1.4,0.4-1.7,1.1l-22.6,49
			l-14.8-50.7c-0.3-0.9-1.1-1.5-2-1.5H2.1c-0.7,0-1.3,0.3-1.7,0.9c-0.4,0.6-0.5,1.3-0.3,1.9l23.7,73.5c0.3,0.9,1.1,1.5,2,1.5h13.1
			c0.8,0,1.6-0.5,1.9-1.3l16.6-38.4l16.4,38.4c0.3,0.8,1.1,1.3,1.9,1.3h13.1c0.9,0,1.7-0.6,2-1.5l23.9-73.5c0.2-0.6,0.1-1.3-0.3-1.9
			C114,255.4,113.4,255.1,112.7,255.1z"/>
	</g>
	<g>
		<path class="st0" d="M333.5,200.9L436.1,8c1.9-3.6-0.7-8-4.8-8h-99.7c-2.9,0-5.5,1.6-6.8,4.1l-53.2,100l51.5,96.8
			c1,1.9,3,3.2,5.2,3.2l0,0C330.5,204,332.5,202.8,333.5,200.9z"/>
		<path class="st0" d="M0.9,8l98,184.3l53.5-100.6L105.9,4.2c-1.3-2.5-4-4.1-6.8-4.1H5.7C1.6,0-1,4.3,0.9,8z"/>
		<path class="st0" d="M105.1,204h108.7c2.9,0,5.5-1.6,6.8-4.1l50.9-95.8L220,7.4c-1-1.9-3-3.2-5.2-3.2l0,0c-2.2,0-4.2,1.2-5.2,3.2
			L105.1,204z"/>
	</g>
</g>
</svg>
